<svg xmlns="http://www.w3.org/2000/svg" viewBox="0 0 64 64" width="64" height="64" shape-rendering="crispEdges">
  <rect width="64" height="64" fill="#1a1a2e"/>
  <rect x="8" y="6" width="48" height="52" rx="4" fill="#2a2a3e" stroke="#7aa2f7" stroke-width="1.5"/>
  <rect x="12" y="10" width="40" height="12" rx="2" fill="#0f0f1a"/>
  <text x="49" y="20" text-anchor="end" font-family="'Courier New',monospace" font-size="9" fill="#4ade80">123</text>
  <g fill="#e0e0e0">
    <rect x="12" y="26" width="8" height="6" rx="1"/>
    <rect x="22" y="26" width="8" height="6" rx="1"/>
    <rect x="32" y="26" width="8" height="6" rx="1"/>
    <rect x="42" y="26" width="10" height="6" rx="1" fill="#7aa2f7"/>
    <rect x="12" y="34" width="8" height="6" rx="1"/>
    <rect x="22" y="34" width="8" height="6" rx="1"/>
    <rect x="32" y="34" width="8" height="6" rx="1"/>
    <rect x="42" y="34" width="10" height="6" rx="1" fill="#7aa2f7"/>
    <rect x="12" y="42" width="8" height="6" rx="1"/>
    <rect x="22" y="42" width="8" height="6" rx="1"/>
    <rect x="32" y="42" width="8" height="6" rx="1"/>
    <rect x="42" y="42" width="10" height="6" rx="1" fill="#7aa2f7"/>
    <rect x="12" y="50" width="18" height="6" rx="1"/>
    <rect x="32" y="50" width="8" height="6" rx="1"/>
    <rect x="42" y="50" width="10" height="6" rx="1" fill="#fbbf24"/>
  </g>
</svg>
