<svg xmlns="http://www.w3.org/2000/svg" viewBox="0 0 64 64" width="64" height="64">
  <g transform="translate(32 32)">
    <g fill="#7aa2f7">
      <path d="M-4 -28 h8 l1.5 6 a22 22 0 0 1 5 2 l5.5 -3 l5.5 5.5 l-3 5.5 a22 22 0 0 1 2 5 l6 1.5 v8 l-6 1.5 a22 22 0 0 1 -2 5 l3 5.5 l-5.5 5.5 l-5.5 -3 a22 22 0 0 1 -5 2 l-1.5 6 h-8 l-1.5 -6 a22 22 0 0 1 -5 -2 l-5.5 3 l-5.5 -5.5 l3 -5.5 a22 22 0 0 1 -2 -5 l-6 -1.5 v-8 l6 -1.5 a22 22 0 0 1 2 -5 l-3 -5.5 l5.5 -5.5 l5.5 3 a22 22 0 0 1 5 -2 z"/>
    </g>
    <circle cx="0" cy="0" r="8" fill="#1a1a2e" stroke="#fbbf24" stroke-width="2"/>
  </g>
</svg>
